<svg width="72" height="75" viewBox="0 0 72 75" fill="none" xmlns="http://www.w3.org/2000/svg">
<g opacity="0.9">
<path opacity="0.9" d="M35.2472 0H36.7172C36.7834 0.0682348 36.8572 0.128632 36.9372 0.18C47.5772 4.89 58.2072 9.62 68.8772 14.27C69.7533 14.5653 70.5043 15.1474 71.0087 15.9222C71.5132 16.697 71.7417 17.6193 71.6572 18.54C71.5972 31.1733 71.5972 43.8033 71.6572 56.43C71.7461 57.328 71.5287 58.2297 71.0403 58.9886C70.552 59.7474 69.8214 60.3188 68.9672 60.61C63.6072 62.91 58.2772 65.31 52.9672 67.69C47.6572 70.07 42.1272 72.56 36.7172 75H34.7172C34.2572 74.74 33.8272 74.44 33.3572 74.23C23.3572 69.79 13.3572 65.32 3.24723 60.97C2.22376 60.6497 1.34322 59.9841 0.755949 59.0868C0.168681 58.1895 -0.0888869 57.1161 0.0272274 56.05C0.127227 43.65 0.107227 31.25 0.0272274 18.86C-0.0711706 17.8923 0.16224 16.9198 0.689173 16.1021C1.2161 15.2845 2.00527 14.6702 2.92723 14.36C13.7272 9.63 24.4772 4.8 35.2472 0ZM38.8572 66.89C39.3172 66.76 39.5072 66.73 39.6772 66.66C47.9172 63 56.1472 59.34 64.4072 55.73C65.2872 55.35 65.3472 54.79 65.3472 54.02C65.3472 43.9667 65.3472 33.9167 65.3472 23.87C65.3472 23.46 65.2772 23.05 65.2372 22.53L63.8972 23.08C56.0072 26.58 48.1372 30.08 40.2372 33.54C39.7851 33.6779 39.3963 33.9715 39.1401 34.3688C38.8838 34.766 38.7765 35.2412 38.8372 35.71C38.8872 45.56 38.8372 55.42 38.8372 65.27L38.8572 66.89ZM6.42723 22.62C6.37723 23.12 6.33723 23.35 6.33723 23.62C6.33723 33.87 6.33723 44.12 6.33723 54.37C6.33723 55.37 6.87723 55.68 7.62723 56.01C15.4206 59.4233 23.2206 62.8567 31.0272 66.31C31.4972 66.52 32.0272 66.69 32.5072 66.9C32.5571 66.6993 32.5938 66.4955 32.6172 66.29C32.6172 55.89 32.6172 45.5 32.6172 35.1C32.6172 34.19 32.1172 33.97 31.4672 33.68C24.7339 30.7133 18.0072 27.7333 11.2872 24.74C9.73723 24.05 8.17723 23.38 6.42723 22.62ZM60.6172 17.62L59.7772 17.18C52.1172 13.79 44.4672 10.38 36.7772 7.04C36.1552 6.84866 35.4856 6.88409 34.8872 7.14C30.7772 8.91 26.6972 10.76 22.5972 12.58L11.1272 17.65C11.4872 17.87 11.6772 18 11.8872 18.1C19.5772 21.51 27.2772 24.94 35.0272 28.31C35.6036 28.4807 36.2226 28.4345 36.7672 28.18C40.9672 26.37 45.1472 24.49 49.3272 22.63L60.6172 17.62Z" fill="#252525"/>
</g>
</svg>
