<svg width="75" height="67" viewBox="0 0 75 67" fill="none" xmlns="http://www.w3.org/2000/svg">
<path opacity="0.9" d="M75 0.36C73.64 2.36 72.35 4.36 70.91 6.2C68.83 8.94 66.68 11.62 64.5 14.29C61.83 17.56 59.15 20.83 56.39 24.01C53.0567 27.8767 49.64 31.6933 46.14 35.46C44 37.81 41.66 40 39.42 42.31C37.574 44.1374 35.3946 45.5937 33 46.6C32.42 46.86 31.86 47.19 31.3 47.49C31.05 47.63 30.87 47.65 30.72 47.34C29.6341 45.1435 28.0442 43.2349 26.08 41.77C25.9835 41.69 25.8963 41.5994 25.82 41.5C27.1831 38.8196 28.9317 36.3534 31.01 34.18C35.64 29.69 40.53 25.51 45.54 21.46C48.73 18.88 51.91 16.29 55.16 13.79C58.41 11.29 61.87 8.73 65.26 6.25C67.16 4.85 69.0867 3.48667 71.04 2.16C72.04 1.47 73.16 0.87 74.23 0.25C74.4761 0.137079 74.7345 0.0531812 75 0V0.36Z" fill="#252525"/>
<path opacity="0.9" d="M0 64.57C1.57264 64.0403 3.00506 63.1617 4.19 62C6.86497 59.4518 8.94444 56.3446 10.28 52.9C11.4519 49.9154 13.4847 47.3466 16.12 45.52C17.8028 44.3589 19.848 43.844 21.88 44.07C22.4301 44.1543 22.9516 44.3705 23.4 44.7C25.4359 46.2105 27.0507 48.2177 28.09 50.53C28.3608 51.2004 28.3608 51.9496 28.09 52.62C27.4438 55.3512 26.3089 57.9429 24.74 60.27C23.5717 61.9913 22.0511 63.4448 20.2789 64.5343C18.5067 65.6238 16.5233 66.3245 14.46 66.59C9.64722 67.1588 4.76861 66.5125 0.27 64.71L0 64.57Z" fill="#252525"/>
</svg>
