<svg width="63" height="76" viewBox="0 0 63 76" fill="none" xmlns="http://www.w3.org/2000/svg">
<path d="M62.7499 40.2484C62.4499 48.3184 59.0099 55.1084 53.6499 61.0084C48.0633 66.9853 41.1945 71.618 33.5599 74.5584C32.9658 74.8361 32.3209 74.9883 31.6653 75.0055C31.0098 75.0227 30.3577 74.9046 29.7499 74.6584C20.1899 70.4984 11.7499 64.8584 5.74991 56.0884C2.05826 50.8526 0.0935064 44.5948 0.129911 38.1884C0.129911 29.9084 0.129911 21.6184 0.00991076 13.3384C-0.0482967 12.4482 0.150791 11.5601 0.583428 10.7799C1.01606 9.99976 1.66399 9.36051 2.44991 8.93843C11.7299 3.17843 21.7099 -0.191571 32.7199 0.00842948C41.2605 0.286549 49.6018 2.65948 57.0099 6.91843C58.2999 7.62843 59.5599 8.42843 60.8499 9.14843C61.5323 9.49829 62.0965 10.0416 62.4717 10.7103C62.847 11.3791 63.0168 12.1437 62.9599 12.9084C62.8999 17.0084 62.9399 35.2484 62.7499 40.2484ZM57.0099 15.0084C56.9884 14.5875 56.8785 14.1758 56.6872 13.8001C56.496 13.4245 56.2277 13.0934 55.8999 12.8284C48.4899 8.39843 40.5699 5.52843 31.8199 5.45843C23.0699 5.38843 15.0099 8.16843 7.44991 12.4384C6.92291 12.6907 6.48544 13.0977 6.19596 13.6052C5.90648 14.1127 5.77877 14.6964 5.82991 15.2784C5.86991 22.7918 5.86991 30.2984 5.82991 37.7984C5.77882 42.9783 7.27616 48.0553 10.1299 52.3784C15.1899 60.1184 22.3599 65.2984 30.6299 69.0984C31.3704 69.3052 32.1613 69.2304 32.8499 68.8884C37.8131 66.7164 42.3896 63.751 46.3999 60.1084C53.4699 53.6584 57.3999 45.8484 57.0399 36.1084C56.9199 33.1184 57.0799 19.0684 57.0099 15.0084Z" fill="#494949"/>
<path d="M31.4799 14.1884L35.5899 26.8684H48.9199L38.1399 34.9384L42.2599 47.7384L31.4799 39.9684L20.6999 47.8284L24.8199 34.9284L14.0399 26.8684H27.3599L31.4799 14.1884Z" fill="#494949"/>
</svg>
