<svg width="76" height="18" viewBox="0 0 76 18" fill="none" xmlns="http://www.w3.org/2000/svg">
<path opacity="0.9" d="M16.8819 11.0082C17.9019 8.00156 18.9019 5.00156 19.8819 2.00822C20.0066 1.63171 20.1569 1.26418 20.3319 0.908225C20.4885 0.556138 20.7722 0.276107 21.1263 0.124089C21.4804 -0.0279281 21.8788 -0.040736 22.2419 0.0882249C22.6005 0.171983 22.9151 0.386449 23.124 0.689718C23.333 0.992988 23.4214 1.36327 23.3719 1.72822C23.3361 2.08688 23.2555 2.43964 23.1319 2.77822C21.6852 7.09823 20.2286 11.4316 18.7619 15.7782C18.7119 15.9282 18.6519 16.0882 18.5919 16.2382C18.4916 16.6428 18.259 17.0022 17.9311 17.2595C17.6032 17.5168 17.1987 17.6571 16.7819 17.6582C16.3664 17.6625 15.9617 17.5252 15.6346 17.2689C15.3074 17.0127 15.0773 16.6527 14.9819 16.2482C14.1119 13.7582 13.2719 11.2482 12.4119 8.79822C12.2119 8.20822 12.0019 7.63822 11.7119 6.79822L9.7119 12.5782L8.5019 16.1182C8.41307 16.5419 8.18226 16.9225 7.84766 17.1971C7.51306 17.4717 7.09473 17.6238 6.6619 17.6282C6.22867 17.6326 5.80735 17.4865 5.46993 17.2147C5.13251 16.9429 4.89992 16.5624 4.8119 16.1382C3.26523 11.5716 1.7219 6.99822 0.181899 2.41823C0.0723502 2.2039 0.0107191 1.96833 0.00127768 1.72782C-0.00816376 1.48731 0.0348103 1.24762 0.127221 1.02537C0.219632 0.803123 0.359269 0.60363 0.536452 0.440719C0.713636 0.277808 0.924128 0.155377 1.15334 0.0819121C1.38255 0.00844755 1.62499 -0.0142931 1.86386 0.0152664C2.10274 0.0448259 2.33232 0.125979 2.53671 0.253099C2.7411 0.380219 2.9154 0.550267 3.04753 0.751454C3.17965 0.952641 3.26645 1.18015 3.3019 1.41822C4.3019 4.24822 5.2119 7.08822 6.1619 9.91822C6.2919 10.3082 6.4419 10.6882 6.6719 11.3182L8.2319 6.83822C8.8319 5.09822 9.4419 3.35822 10.0519 1.61822C10.3319 0.768225 10.7219 0.0982249 11.7219 0.0782249C12.7219 0.0582249 13.1919 0.778225 13.4919 1.63822C14.5519 4.77822 15.6319 7.91822 16.7019 11.0482L16.8819 11.0082Z" fill="#252525"/>
<path opacity="0.9" d="M58.3419 11.2982L60.3419 5.42823C60.7819 4.15823 61.2219 2.87823 61.6419 1.59823C61.9519 0.768226 62.3419 0.0882263 63.3519 0.0882263C64.3619 0.0882263 64.8119 0.768226 65.1019 1.64823C66.1019 4.64823 67.1719 7.64823 68.2019 10.6482L68.4519 11.2682C69.4519 8.35823 70.3619 5.60823 71.2919 2.85823C71.4919 2.26823 71.6619 1.66823 71.9019 1.08823C72.0595 0.713705 72.352 0.412063 72.7215 0.243109C73.091 0.0741554 73.5106 0.0502273 73.8969 0.176069C74.2832 0.301911 74.6082 0.568333 74.8073 0.922511C75.0064 1.27669 75.0652 1.69276 74.9719 2.08823C73.3919 6.82156 71.7986 11.5516 70.1919 16.2782C70.0845 16.6651 69.8466 17.0029 69.5185 17.2344C69.1904 17.4658 68.7924 17.5767 68.3919 17.5482C67.9745 17.5343 67.5734 17.3825 67.2514 17.1166C66.9294 16.8506 66.7045 16.4855 66.6119 16.0782C65.6719 13.3782 64.7519 10.6782 63.8319 7.96823C63.7119 7.63823 63.5919 7.29823 63.3819 6.73823C62.9719 8.00823 62.6219 9.00823 62.2919 9.92823C61.5919 11.9282 60.9119 13.9782 60.2119 15.9882C59.8119 17.1382 59.2119 17.6882 58.2719 17.6382C57.8258 17.6123 57.4012 17.4377 57.0658 17.1422C56.7305 16.8468 56.5038 16.4476 56.4219 16.0082C54.9219 11.4882 53.3619 7.00823 51.9119 2.44823C51.8255 2.14521 51.804 1.82738 51.8488 1.51549C51.8936 1.2036 52.0037 0.904667 52.1719 0.638226C52.3676 0.435662 52.6117 0.286235 52.8811 0.204012C53.1505 0.121789 53.4364 0.109474 53.7119 0.168226C54.2849 0.433156 54.733 0.909878 54.9619 1.49823C55.9619 4.33823 56.9619 7.20823 57.8919 10.0682C58.0519 10.3982 58.1319 10.7282 58.3419 11.2982Z" fill="#252525"/>
<path opacity="0.9" d="M42.6019 11.3482L45.1919 3.72822C45.4719 2.88822 45.7319 2.03822 46.0419 1.20822C46.0966 0.991254 46.1965 0.788276 46.335 0.612561C46.4736 0.436846 46.6477 0.292351 46.8459 0.188524C47.0441 0.0846973 47.262 0.0238768 47.4853 0.0100394C47.7086 -0.00379797 47.9324 0.0296594 48.1419 0.108224C48.3556 0.175568 48.5528 0.286764 48.7211 0.434702C48.8893 0.582639 49.0248 0.764061 49.119 0.967364C49.2131 1.17067 49.2637 1.39137 49.2677 1.61537C49.2716 1.83937 49.2288 2.06173 49.1419 2.26822C47.5952 6.93489 46.0386 11.5716 44.4719 16.1782C44.3789 16.5956 44.1465 16.9687 43.8129 17.2362C43.4793 17.5036 43.0645 17.6494 42.6369 17.6494C42.2093 17.6494 41.7945 17.5036 41.461 17.2362C41.1274 16.9687 40.8949 16.5956 40.8019 16.1782L37.9319 7.87822C37.8419 7.60822 37.7319 7.33822 37.5719 6.87822C37.3919 7.31822 37.2619 7.59822 37.1619 7.87822L34.4119 15.8782C33.9919 17.0982 33.3419 17.6882 32.4119 17.6282C31.3319 17.5582 30.8519 16.8182 30.5419 15.8782C29.0419 11.3582 27.5419 6.87822 26.0019 2.32822C25.9091 2.12627 25.8585 1.90746 25.8533 1.68524C25.8481 1.46302 25.8885 1.24209 25.9718 1.03604C26.0552 0.829982 26.1798 0.643153 26.338 0.487036C26.4963 0.330919 26.6848 0.208813 26.8919 0.128224C27.1095 0.0517294 27.3407 0.0214377 27.5707 0.0392811C27.8007 0.0571245 28.0245 0.122711 28.2277 0.231857C28.431 0.341003 28.6092 0.491312 28.7511 0.673195C28.893 0.855078 28.9955 1.06454 29.0519 1.28822C29.1319 1.50822 29.1919 1.72822 29.2719 1.94822L32.1819 10.5282C32.2519 10.7482 32.3419 10.9582 32.4819 11.3082C33.6219 8.10822 34.6719 5.00822 35.7319 2.00822L35.9419 1.34822C36.0242 0.986865 36.228 0.664661 36.5192 0.435364C36.8103 0.206066 37.1713 0.0835392 37.5419 0.0882238C37.9074 0.0734918 38.2668 0.186065 38.5586 0.406733C38.8504 0.627401 39.0565 0.942487 39.1419 1.29822C40.0519 4.00822 41.0519 6.70822 41.9219 9.40822L42.6019 11.3482Z" fill="#252525"/>
</svg>
